<svg width="512" height="512" xmlns="http://www.w3.org/2000/svg"><path fill="#fff" d="M193 139.52c8.24-1.7 7.74 3.15 13.04 2.58l14.96-3.89c11.52-2.44 13.55-2.23 25-2.21 14.39.02 36.04 4.17 49 10.4l9 5.55c17.57 11.14 30.01 22.75 41.81 40.05l18.91 32c2.34 4.11 6.52 12.74 10.37 15.02 2.81 1.66 21.44 4.64 25.91 5.39 13.89 2.34 27.19 6.13 39 14.11 7.31 4.93 15.83 13.93 14.89 23.48-.97 9.84-13.26 10.62-20.89 9.58l-42-9.46c-6.73-1.78-12.65-5.43-19-1.49l-31 21.99-52 27.7-34 18.59c-16.75 7.55-29.65 10.98-47 15.95-7.6 2.18-18.51 6.8-26 7.42-4.23.35-6.12-1.22-8.96-1.03-4.59.3-4.32 4.04-9.08 4.57-3.54.39-11.88-2.69-15.96-3.54-9.63-1.99-35.13-4.65-41.83-9.41-3.38-2.41-5.74-6.53-8.19-9.87-8.56-11.64-15.53-32.42-14.94-47l1.93-14-.92-9v-10c.13-14.89 3.57-22.47 7.53-36 1.97-6.74 5.86-20.51 9.38-26l7.51-9.17c11.31-13.56 11.7-14.41 25.53-26.25 11.23-9.61 30.23-21.3 45-23.58-1.07-8.89 5.3-10.9 13-12.48zM152.89 324l-4.21-9c-6.06-11.36-15.29-19.53-26.68-25.25-4.96-2.48-15.56-9.23-20.72-5.15-5.9 4.66-2.62 20.07-1.16 26.4 1.36 5.9 3.7 17.17 8.27 21.2 3.78 3.34 9.8 3.7 14.61 4.38 7.94 1.12 31.3 4.44 38 3.42l-8.11-16z"/></svg>